<svg xmlns="http://www.w3.org/2000/svg" xmlns:svg="http://www.w3.org/2000/svg" id="svg11350" width="570" height="350" version="1.1"><metadata id="metadata11361"/><g id="g11352" stroke-dasharray="none" stroke-miterlimit="4" stroke-width="10.357" transform="matrix(0.97240443,0,0,0.97240443,3.0012705,75.550162)"><title id="title11354">Layer 1</title><path id="svg_1" fill="#b5ffff" stroke="#000" stroke-dasharray="none" stroke-miterlimit="4" stroke-width="10.357" d="m 96.768211,4.998325 386.880989,0 0,0 c 50.68283,0 91.77158,43.205357 91.77158,96.503295 0,53.28903 -41.08875,96.49589 -91.77158,96.49589 l -386.880989,0 0,0 c -50.680702,0 -91.766739,-43.20686 -91.766739,-96.49589 0,-53.297938 41.086037,-96.503295 91.766739,-96.503295 z"/></g><path id="PapyrusPath" fill="none" fill-rule="evenodd" stroke="none" stroke-linecap="butt" stroke-linejoin="miter" stroke-opacity="1" stroke-width="1" d="m 28,94 52,-25 415,1 50,32 23,57 -2,46 -22,40 -54,35 L 75,279 24,246 3,205 4,133 28,94"/></svg>