<svg xmlns="http://www.w3.org/2000/svg" xmlns:svg="http://www.w3.org/2000/svg" id="svg6358" width="350" height="350" version="1.1"><metadata id="metadata6370"/><g id="g6360" stroke-dasharray="none" stroke-miterlimit="4" stroke-width="17.64" transform="matrix(0.55724749,0,0,0.55724749,-3.2428152,93.716337)"><title id="title6362">BusinessRole</title><path id="papyrusPath" fill="#ffffb5" stroke="#000" stroke-dasharray="none" stroke-linecap="round" stroke-linejoin="round" stroke-miterlimit="4" stroke-width="17.64" d="m 448.17102,-55.614777 c 0,55.612564 -58.32138,100.687668 -130.26837,100.687668 m 130.26837,-100.687668 0,0 c 0,55.612564 -58.32138,100.687668 -130.26837,100.687668 -71.94693,0 -130.2685,-45.075104 -130.2685,-100.687668 m 0,0 0,0 c 0,-55.611813 58.32157,-100.690203 130.2685,-100.690203 71.94699,0 130.26837,45.07839 130.26837,100.690203 l 0,402.757357 c 0,55.60815 -58.32138,100.7016 -130.26837,100.7016 -71.94693,0 -130.2685,-45.09345 -130.2685,-100.7016 l 0,-402.757357 z" transform="matrix(0,1,-1,0,463.672,-172.132)"/><ellipse id="svg_1" cx="519.25" cy="146" fill="#ffffb5" stroke="#000" stroke-dasharray="none" stroke-linecap="round" stroke-linejoin="round" stroke-miterlimit="4" stroke-width="17.64" rx="100.75" ry="130"/></g><path id="PapyrusPath" fill="none" fill-rule="evenodd" stroke="none" stroke-linecap="butt" stroke-linejoin="miter" stroke-opacity="1" stroke-width="1" d="m 22,113 35,-15 229,3 38,9 22,39 0,51 -17,33 -42,20 L 57,252 16,234 3,199 2,147 22,113"/></svg>