<svg xmlns="http://www.w3.org/2000/svg" xmlns:svg="http://www.w3.org/2000/svg" id="svg12483" width="350" height="350" version="1.1"><metadata id="metadata12494"/><g id="g12485" stroke-dasharray="none" stroke-miterlimit="4" stroke-width="16.951" transform="matrix(0.58149407,0,0,0.58149407,4.0002884,94.969914)"><title id="title12487">Layer 1</title><path id="svg_1" fill="#ffffb5" stroke="#000" stroke-dasharray="none" stroke-linecap="round" stroke-linejoin="round" stroke-miterlimit="4" stroke-width="16.951" d="m 100.89278,4.9981 479.45561,0 c -52.95801,0 -95.89057,59.321388 -95.89057,132.49796 0,73.17641 42.93256,132.49771 95.89057,132.49771 l -479.45561,0 0,0 c -52.961079,0 -95.891201,-59.3213 -95.891201,-132.49771 0,-73.176564 42.930115,-132.49796 95.891201,-132.49796 z" transform="matrix(-1,0,0,-1,585.348,274.992)"/></g><path id="PapyrusPath" fill="none" fill-rule="evenodd" stroke="none" stroke-linecap="butt" stroke-linejoin="miter" stroke-opacity="1" stroke-width="1" d="m 3,92 295,1 36,24 15,56 -9,44 -18,31 -24,9 -295,1 1,-12 21,-8 13,-14 12,-24 3,-35 L 46,135 26,111 2,105 3,92"/></svg>