<svg xmlns="http://www.w3.org/2000/svg" xmlns:svg="http://www.w3.org/2000/svg" id="svg4136" width="570" height="350" version="1.1"><metadata id="metadata4147"/><g id="g4138" stroke-dasharray="none" stroke-miterlimit="4" stroke-width="10.458" transform="matrix(0.95617637,0,0,0.95617637,9.2625205,74.276227)"><title id="title4140">Layer 1</title><path id="svg_1" fill="#ffffb5" stroke="#000" stroke-dasharray="none" stroke-miterlimit="4" stroke-width="10.458" d="m 96.768211,4.998325 386.880989,0 0,0 c 50.68283,0 91.77158,43.205357 91.77158,96.503295 0,53.28903 -41.08875,96.49589 -91.77158,96.49589 l -386.880989,0 0,0 c -50.680702,0 -91.766739,-43.20686 -91.766739,-96.49589 0,-53.297938 41.086037,-96.503295 91.766739,-96.503295 z"/></g><path id="PapyrusPath" fill="none" fill-rule="evenodd" stroke="none" stroke-linecap="butt" stroke-linejoin="miter" stroke-opacity="1" stroke-width="1" d="m 35,88 45,-22 416,-3 49,35 23,51 -3,59 -24,44 -53,28 L 73,280 19,243 3,208 3,136 35,88"/></svg>