<svg xmlns="http://www.w3.org/2000/svg" xmlns:svg="http://www.w3.org/2000/svg" id="svg4136" width="413" height="107" version="1.1"><metadata id="metadata4155"/><g id="g4138" transform="matrix(0.98636442,0,0,1.0003107,2.5611224,-0.01662437)"><title id="title4140">Layer 1</title><line id="svg_1" x1="41.5" x2="77.5" y1="55" y2="55" fill="none" stroke="#000" stroke-linecap="square" stroke-linejoin="round" stroke-width="25"/><line id="svg_5" x1="12.5" x2="52.5" y1="12.75" y2="52.75" fill="none" stroke="#000" stroke-linecap="round" stroke-linejoin="round" stroke-width="25" transform="matrix(0,1,-1,0,65.25,0.25)"/><line id="svg_6" x1="360" x2="400" y1="54.5" y2="94.5" fill="none" stroke="#000" stroke-linecap="round" stroke-linejoin="round" stroke-width="25" transform="matrix(0,1,-1,0,454.5,-305.5)"/><line id="svg_7" x1="13.5" x2="53.5" y1="54.5" y2="94.5" fill="none" stroke="#000" stroke-linecap="round" stroke-linejoin="round" stroke-width="25"/><line id="svg_8" x1="360.5" x2="400.5" y1="12.5" y2="52.5" fill="none" stroke="#000" stroke-linecap="round" stroke-linejoin="round" stroke-width="25"/><line id="svg_2" x1="336.625" x2="372.625" y1="55" y2="55" fill="none" stroke="#000" stroke-linecap="square" stroke-linejoin="round" stroke-width="25"/><line id="svg_3" x1="114.125" x2="150.125" y1="55" y2="55" fill="none" stroke="#000" stroke-linecap="square" stroke-linejoin="round" stroke-width="25"/><line id="svg_4" x1="263.625" x2="299.625" y1="55" y2="55" fill="none" stroke="#000" stroke-linecap="square" stroke-linejoin="round" stroke-width="25"/><line id="svg_9" x1="188.625" x2="224.625" y1="55" y2="55" fill="none" stroke="#000" stroke-linecap="square" stroke-linejoin="round" stroke-width="25"/></g><path id="path4157" fill="none" fill-rule="evenodd" stroke="none" stroke-linecap="butt" stroke-linejoin="miter" stroke-opacity="1" stroke-width="1" d="M 5.0726422,60.151265 6.0772501,45.887894 51.78691,2.0789711 l 307.41002,0 47.71888,46.3559529 0,13.244559 L 362.21075,104.979 51.284607,105.48841 7.081858,63.717106"/></svg>