<svg xmlns="http://www.w3.org/2000/svg" xmlns:svg="http://www.w3.org/2000/svg" id="svg4151" width="521" height="360" version="1.1"><metadata id="metadata4163"/><g id="g4153" stroke="#000" stroke-opacity="1" transform="matrix(0.99174887,0,0,0.99174887,-0.7010154,3.9999845)"><title id="title4155">Layer 1</title><path id="svg_3" fill="#b5ffb5" stroke="#000" stroke-linecap="round" stroke-linejoin="round" stroke-opacity="1" stroke-width="10" d="m 30.193066,54.279938 0,0 c 0,-27.218903 23.550354,-49.281799 52.600079,-49.281799 l 23.909265,0 0,0 114.76526,0 215.18355,0 c 13.95105,0 27.33071,5.191345 37.19442,14.432129 9.86365,9.243973 15.40671,21.777893 15.40671,34.84967 l 0,123.201902 0,0 0,73.92148 0,0 c 0,27.21561 -23.55002,49.28131 -52.60113,49.28131 l -215.18355,0 -114.92562,-0.69 1.16036,0.19 -24.909264,0.5 c -29.049725,0 -52.600079,-22.0657 -52.600079,-49.28131 l 0,0 0,-73.92148 0,0 0,-123.201902 z"/><path id="svg_5" fill="#b5ffb5" stroke="#000" stroke-linecap="round" stroke-linejoin="round" stroke-opacity="1" stroke-width="10" d="m 4.998262,354.5557 95.818408,-54.00272 319.38496,0 95.81833,54.00272 -511.021706,0 8e-6,0 z"/></g><path id="PapyrusPath" fill="none" fill-rule="evenodd" stroke="none" stroke-linecap="butt" stroke-linejoin="miter" stroke-opacity="1" stroke-width=".996" d="m 2.9978178,2.9978328 516.0043422,1.0084404 0,353.9622568 L 3.0325923,358.00215 2.9978178,2.9978328"/></svg>