<svg xmlns="http://www.w3.org/2000/svg" xmlns:svg="http://www.w3.org/2000/svg" id="svg15292" width="570" height="350" version="1.1"><metadata id="metadata15303"/><g id="g15294" stroke-dasharray="none" stroke-miterlimit="4" stroke-width="10.357" transform="matrix(0.97716203,0,0,1.0234977,0.12056155,70.290101)"><title id="title15296">Layer 1</title><path id="svg_1" fill="#b5ffb5" stroke="#000" stroke-dasharray="none" stroke-miterlimit="4" stroke-width="10.357" d="m 96.768211,4.998325 386.880989,0 0,0 c 50.68283,0 91.77158,43.205357 91.77158,96.503295 0,53.28903 -41.08875,96.49589 -91.77158,96.49589 l -386.880989,0 0,0 c -50.680702,0 -91.766739,-43.20686 -91.766739,-96.49589 0,-53.297938 41.086037,-96.503295 91.766739,-96.503295 z"/></g><path id="PapyrusPath" fill="none" fill-rule="evenodd" stroke="none" stroke-linecap="butt" stroke-linejoin="miter" stroke-opacity="1" stroke-width="1" d="m 75,71 418,-2 54,38 20,47 0,49 -25,44 -52,33 L 72,278 24,249 2,209 2,141 27,94 Z"/></svg>