<svg xmlns="http://www.w3.org/2000/svg" xmlns:svg="http://www.w3.org/2000/svg" id="svg9125" width="350" height="350" version="1.1"><metadata id="metadata9137"/><g id="g9127" stroke-dasharray="none" stroke-miterlimit="4" stroke-width="20.976" transform="matrix(0.47674341,0,0,0.47674341,120.13649,71.172569)"><title id="title9129">Layer 1</title><path id="svg_9" fill="#ffffb5" stroke="#000" stroke-dasharray="none" stroke-linecap="round" stroke-linejoin="round" stroke-miterlimit="4" stroke-width="20.976" d="M 82.826706,432.22318 C 33.47496,409.34122 -1.89859,336.63599 6.140381,274.60452 11.208356,235.48967 118.15691,-1.968841 127.4995,5.154541 c 3.04579,2.323689 30.17486,57.684998 60.28088,123.025099 48.22838,104.66553 54.7419,124.18413 54.7419,164.06761 0,80.84327 -52.43692,147.06366 -115.39821,145.73087 -18.37514,-0.3891 -38.307434,-2.97882 -44.297363,-5.75494 z m 49.449084,-40.66175 c 1.63336,-10.46597 -2.18593,-15.56994 -11.64061,-15.56994 -21.557902,0 -51.458072,-33.68757 -58.141723,-65.49713 -7.124859,-33.93403 -26.020008,-37.96952 -28.809048,-6.15394 -5.379688,61.2956 89.530231,145.26014 98.591381,87.22101 z" transform="matrix(-1,0,0,-1,247.524,442.996)"/><ellipse id="svg_10" cx="136.689" cy="124.371" fill="#ffffb5" stroke="#000" stroke-dasharray="none" stroke-linecap="round" stroke-linejoin="round" stroke-miterlimit="4" stroke-opacity="0" stroke-width="21.701" rx="91.783" ry="104.832"/></g><path id="PapyrusPath" fill="none" fill-rule="evenodd" stroke="none" stroke-linecap="butt" stroke-linejoin="miter" stroke-opacity="1" stroke-width="1" d="m 140.7839,60.92373 67.57627,0 35.66525,33.788136 11.26271,39.419494 -9.38559,48.80508 -71.33051,123.88983 -65.69915,-138.90678 -1.87712,-48.80508 20.64831,-39.419493 z"/></svg>